<svg width="24" height="32" viewBox="0 0 24 32" fill="none" xmlns="http://www.w3.org/2000/svg">
<path fill-rule="evenodd" clip-rule="evenodd" d="M13.5825 1.62025C13.5825 0.725412 12.874 0 12 0C11.126 0 10.4176 0.725412 10.4176 1.62025V2.83544H9.53547C6.01441 2.83544 3.10018 5.6385 2.88038 9.23665L2.53066 14.9617C2.39732 17.1445 1.6816 19.248 0.461433 21.0432C-0.641029 22.6651 0.340437 24.9053 2.25667 25.1407L7.64827 25.8031V27.5443C7.64827 30.0051 9.59661 32 12 32C14.4034 32 16.3517 30.0051 16.3517 27.5443V25.8031L21.7433 25.1407C23.6596 24.9053 24.641 22.6651 23.5386 21.0432C22.3184 19.248 21.6027 17.1445 21.4693 14.9617L21.1196 9.23665C20.8998 5.6385 17.9856 2.83544 14.4645 2.83544H13.5825V1.62025ZM10.0219 27.5443C10.0219 28.6629 10.9076 29.5696 12 29.5696C13.0925 29.5696 13.9781 28.6629 13.9781 27.5443V26.3291H10.0219V27.5443Z" fill="#DB3727"/>
</svg>
